<svg id="Layer_1" data-name="Layer 1" xmlns="http://www.w3.org/2000/svg" xmlns:xlink="http://www.w3.org/1999/xlink" viewBox="0 0 5683.82 865.58"><defs><style>.cls-1{fill:none;}.cls-2{clip-path:url(#clip-path);}.cls-3{fill:#5ecc62;}.cls-4{fill:#fff;}.cls-5{clip-path:url(#clip-path-2);}</style><clipPath id="clip-path" transform="translate(1574.91 -106.71)"><rect class="cls-1" x="-745" y="106.71" width="4024" height="865.58"/></clipPath><clipPath id="clip-path-2" transform="translate(1574.91 -106.71)"><rect class="cls-1" x="-1574.95" y="219.89" width="1659.9" height="580.55"/></clipPath></defs><title>about-us-background</title><g class="cls-2"><rect class="cls-3" x="829.91" width="4024" height="865.58"/><path class="cls-4" d="M2490.44,551.63h400a41.46,41.46,0,0,0,0-82.91H2693.63a41.46,41.46,0,0,1,0-82.91h88.2a41.46,41.46,0,0,0,0-82.91H2607.45a41.51,41.51,0,0,1,0-83H3805.31a41.45,41.45,0,0,1,0,82.9h-112a41.46,41.46,0,0,0,0,82.91h374.24a41.46,41.46,0,0,1,0,82.91H3777.77a41.46,41.46,0,0,0,0,82.91h70.81a41.46,41.46,0,0,1,0,82.91H3414.81a41.46,41.46,0,0,0,0,82.91h59.86a41.46,41.46,0,0,1,0,82.91H2859.75a41.46,41.46,0,0,1,0-82.91h59.86a41.46,41.46,0,0,0,0-82.91H2490.44a41.4,41.4,0,0,1,0-82.8Z" transform="translate(1574.91 -106.71)"/><g class="cls-5"><path class="cls-4" d="M43.56,468.69h-400a41.41,41.41,0,0,0-41.39,41.45,41.43,41.43,0,0,0,41.39,41.46h196.85a41.42,41.42,0,0,1,41.4,41.45,41.42,41.42,0,0,1-41.4,41.45h-88.2A41.42,41.42,0,0,0-289.22,676a41.44,41.44,0,0,0,41.39,41.45H-73.46a41.43,41.43,0,0,1,41.4,41.46,41.45,41.45,0,0,1-41.4,41.56H-1271.31A41.43,41.43,0,0,1-1312.7,759a41.42,41.42,0,0,1,41.39-41.46h112a41.43,41.43,0,0,0,41.39-41.45,41.42,41.42,0,0,0-41.39-41.46h-374.25a41.41,41.41,0,0,1-41.39-41.45,41.43,41.43,0,0,1,41.39-41.46h289.75a41.41,41.41,0,0,0,41.39-41.45,41.43,41.43,0,0,0-41.39-41.46h-70.82A41.41,41.41,0,0,1-1356,427.34a41.42,41.42,0,0,1,41.39-41.45H-880.8a41.42,41.42,0,0,0,41.39-41.46A41.42,41.42,0,0,0-880.8,303h-59.87a41.42,41.42,0,0,1-41.39-41.46,41.42,41.42,0,0,1,41.39-41.45h614.93a41.42,41.42,0,0,1,41.39,41.45A41.43,41.43,0,0,1-325.74,303h-59.87A41.42,41.42,0,0,0-427,344.43a41.43,41.43,0,0,0,41.4,41.46H43.56a41.4,41.4,0,0,1,0,82.8Z" transform="translate(1574.91 -106.71)"/></g></g></svg>