<?xml version="1.0" encoding="utf-8"?>
<!-- Generator: Adobe Illustrator 24.0.1, SVG Export Plug-In . SVG Version: 6.00 Build 0)  -->
<svg version="1.1" id="Layer_1" xmlns="http://www.w3.org/2000/svg" xmlns:xlink="http://www.w3.org/1999/xlink" x="0px" y="0px"
	 viewBox="0 0 2562.4 1205" style="enable-background:new 0 0 2562.4 1205;" xml:space="preserve">
<style type="text/css">
	.st0{clip-path:url(#SVGID_2_);}
	.st1{fill:none;}
	.st2{fill:#FFFFFF;}
	.st3{fill:#5ECA62;}
	.st4{opacity:0.17;fill:#5ECC62;enable-background:new    ;}
</style>
<title>log in wallpaper</title>
<g>
	<defs>
		<polygon id="SVGID_1_" points="11.4,5 2562.4,0 2562.4,1205 11.4,1205 		"/>
	</defs>
	<clipPath id="SVGID_2_">
		<use xlink:href="#SVGID_1_"  style="overflow:visible;"/>
	</clipPath>
	<g class="st0">
		<polygon class="st1" points="11.4,5 2562.4,0 2562.4,1205 11.4,1205 		"/>
		<polygon class="st2" points="11.4,5 2562.4,0 2562.4,1205 11.4,1205 		"/>
		<path class="st3" d="M962,0.8c307.3,27.2,503.3,175.1,735.4,117.3c228.4-60.4,276.9,117,380.8,165.6
			c103.9,48.6,224.6,90.8,356.9,93.8c106.8,2.4,220.4-28.1,275-80.4l1.5-318.6l-1589.3-2.3L962,0.8z"/>
		<path class="st4" d="M2562.4,917.5c-49-38.8-94.3-82-120.7-137.9c-34.3-72.4-32.3-155.9-32.4-236.1c-0.2-80.2-4.9-165-49.7-231.5
			c-19-28.2-44.4-51.6-63-80.1c-30-45.9-40.6-104-28.6-157.5c5.6-24.8,15.8-48.4,30-69.5h261.6L2562.4,917.5z"/>
		<path class="st3" d="M1031.6,1240.5c-208.5-31-341.5-200-499-134c-155,69-187.9-133.7-258.4-189.2S121.8,813.6,32.1,810.2
			c-72.5-2.8-149.6,32.1-186.6,91.9l-1.1,485.8l1078.5,2.4L1031.6,1240.5z"/>
		<path class="st4" d="M-0.9,328c49,38.8,94.3,82,120.7,137.9c34.3,72.4,32.3,155.9,32.4,236.1s4.9,165,49.7,231.5
			c19,28.2,44.4,51.6,63,80.1c30,45.9,40.5,104,28.6,157.5c-5.6,24.8-15.8,48.4-30,69.5H1.9L-0.9,328z"/>
		<path class="st2" d="M936.2,802.2c-1.2,0-2.4-0.2-3.5-0.6c-0.9-0.3-1.6-0.9-2.2-1.6c-0.5-0.6-0.8-1.4-0.8-2.2
			c0-0.1,0.1-0.2,0.1-0.3c0.1-0.1,0.2-0.2,0.4-0.2h1.2c0.3,0,0.6,0.2,0.6,0.5c0.2,0.7,0.6,1.3,1.2,1.7c0.9,0.5,1.9,0.8,2.9,0.7
			c1,0.1,2.1-0.2,3-0.7c0.7-0.5,1-1.2,1-2c0-0.5-0.2-1-0.5-1.3c-0.4-0.4-0.9-0.7-1.5-0.9c-0.6-0.3-1.6-0.6-2.9-1c-1-0.3-2-0.6-3-1.1
			c-0.7-0.3-1.2-0.9-1.7-1.5c-0.4-0.7-0.6-1.4-0.5-2.2c0-0.8,0.2-1.6,0.7-2.3c0.5-0.7,1.2-1.3,2-1.6c1-0.4,2.1-0.6,3.1-0.6
			c1.1,0,2.2,0.2,3.2,0.7c0.8,0.4,1.5,0.9,2,1.7c0.4,0.6,0.7,1.3,0.7,2c0,0.1-0.1,0.2-0.1,0.3c-0.1,0.1-0.2,0.2-0.4,0.1h-1.1
			c-0.3,0-0.6-0.2-0.6-0.5c-0.1-0.7-0.5-1.3-1.1-1.7c-0.7-0.5-1.6-0.7-2.5-0.7c-0.9,0-1.8,0.2-2.6,0.6c-0.6,0.4-1,1.1-0.9,1.8
			c0,0.5,0.1,1,0.4,1.3c0.4,0.4,0.9,0.7,1.4,0.9c0.9,0.3,1.8,0.6,2.7,0.9c1.1,0.3,2.2,0.7,3.2,1.2c0.7,0.3,1.3,0.8,1.8,1.5
			c0.4,0.7,0.6,1.4,0.6,2.2c0,1.4-0.6,2.7-1.7,3.5C939.5,801.9,937.9,802.3,936.2,802.2z M945.8,787.2c-0.3,0-0.5-0.2-0.5-0.4
			c0,0,0-0.1,0-0.1v-1.3c0-0.1,0-0.3,0.1-0.4c0.1-0.1,0.3-0.2,0.4-0.2h1.5c0.2,0,0.3,0.1,0.4,0.2c0.1,0.1,0.2,0.2,0.2,0.4v1.3
			c0,0.2-0.1,0.3-0.2,0.4c-0.1,0.1-0.3,0.1-0.4,0.1H945.8z M946,802c-0.1,0-0.3,0-0.4-0.1c-0.1-0.1-0.1-0.3-0.1-0.4v-11.4
			c0-0.1,0-0.3,0.1-0.4c0.1-0.1,0.3-0.2,0.4-0.2h1.2c0.1,0,0.3,0.1,0.4,0.2c0.1,0.1,0.2,0.2,0.2,0.4v11.4c0,0.2-0.1,0.3-0.2,0.4
			c-0.1,0.1-0.2,0.1-0.4,0.1L946,802z M956.4,807.3c-1.1,0-2.2-0.2-3.2-0.7c-0.7-0.3-1.3-0.9-1.7-1.5c-0.3-0.5-0.5-1-0.5-1.5
			c0-0.2,0-0.3,0.1-0.4c0.1-0.1,0.3-0.2,0.4-0.2h1.2c0.1,0,0.3,0,0.4,0.1c0.1,0.1,0.2,0.3,0.2,0.4c0.2,0.5,0.5,1,0.9,1.3
			c0.6,0.4,1.3,0.6,2.1,0.6c0.9,0.1,1.9-0.2,2.6-0.8c0.6-0.7,0.9-1.7,0.8-2.7v-1.6c-0.4,0.5-1,1-1.6,1.3c-0.7,0.3-1.5,0.5-2.3,0.5
			c-1.5,0.1-2.9-0.5-3.8-1.6c-0.9-1.2-1.3-2.6-1.3-4.1v-0.7V795c0-1.5,0.5-2.9,1.3-4.1c0.9-1.1,2.3-1.8,3.8-1.7
			c1.5-0.1,3,0.6,3.9,1.8v-1c0-0.2,0-0.3,0.2-0.4c0.1-0.1,0.2-0.2,0.4-0.2h1.1c0.2,0,0.3,0.1,0.4,0.2c0.1,0.1,0.2,0.3,0.2,0.4v11.6
			C962,805.4,960.1,807.3,956.4,807.3z M956.4,800.2c0.9,0.1,1.9-0.3,2.5-1.1c0.6-0.7,0.9-1.6,0.9-2.6c0-0.2,0-0.4,0-0.8
			s0-0.7,0-0.8c0-0.9-0.3-1.8-0.9-2.6c-1.3-1.4-3.4-1.5-4.8-0.2c-0.1,0.1-0.1,0.1-0.2,0.2c-0.5,0.8-0.8,1.8-0.8,2.8v0.6v0.7
			c0,1,0.3,2,0.8,2.8C954.4,799.9,955.4,800.3,956.4,800.2L956.4,800.2z M966.2,802c-0.3,0-0.5-0.2-0.5-0.4c0,0,0-0.1,0-0.1v-11.4
			c0-0.1,0-0.3,0.1-0.4c0.1-0.1,0.3-0.2,0.4-0.2h1.1c0.1,0,0.3,0.1,0.4,0.2c0.1,0.1,0.2,0.2,0.2,0.4v1.1c0.4-0.6,1-1,1.6-1.4
			c0.7-0.3,1.6-0.5,2.4-0.5c1.4-0.1,2.7,0.5,3.6,1.5c0.9,1.1,1.4,2.5,1.3,3.9v6.8c0,0.2-0.1,0.3-0.2,0.4c-0.1,0.1-0.2,0.1-0.4,0.1
			H975c-0.1,0-0.3,0-0.4-0.1c-0.1-0.1-0.1-0.3-0.1-0.4v-6.7c0.1-1-0.2-1.9-0.8-2.6c-0.6-0.7-1.5-1-2.4-0.9c-0.9,0-1.8,0.3-2.4,1
			c-0.6,0.7-0.9,1.7-0.9,2.6v6.7c0,0.2-0.1,0.3-0.2,0.4c-0.1,0.1-0.2,0.1-0.4,0.1L966.2,802z M990.7,802.2c-1.3,0.1-2.6-0.5-3.5-1.5
			c-0.9-1.1-1.3-2.5-1.3-3.9v-6.8c0-0.1,0-0.3,0.1-0.4c0.1-0.1,0.3-0.2,0.4-0.2h1.2c0.1,0,0.3,0.1,0.4,0.2c0.1,0.1,0.2,0.2,0.2,0.4
			v6.7c0,2.4,1,3.6,3.1,3.6c0.9,0,1.8-0.3,2.4-0.9c0.6-0.7,0.9-1.7,0.9-2.6v-6.7c0-0.1,0-0.3,0.2-0.4c0.1-0.1,0.2-0.2,0.4-0.2h1.2
			c0.1,0,0.3,0.1,0.4,0.2c0.1,0.1,0.1,0.2,0.1,0.4v11.4c0,0.1,0,0.3-0.1,0.4c-0.1,0.1-0.2,0.1-0.4,0.1h-1.1c-0.1,0-0.3,0-0.4-0.1
			c-0.1-0.1-0.2-0.3-0.2-0.4v-1.1c-0.4,0.6-1,1.1-1.6,1.4C992.3,802.1,991.5,802.3,990.7,802.2L990.7,802.2z M1001.1,806.6
			c-0.2,0-0.3-0.1-0.4-0.2c-0.1-0.1-0.1-0.2-0.1-0.4v-15.9c0-0.1,0-0.3,0.1-0.4c0.1-0.1,0.3-0.2,0.4-0.2h1.1c0.1,0,0.3,0.1,0.4,0.2
			c0.1,0.1,0.2,0.2,0.2,0.4v1.1c1.8-2.2,5.1-2.5,7.3-0.6c0.1,0.1,0.3,0.2,0.4,0.4c0.9,1.2,1.4,2.6,1.4,4.1c0,0.2,0,0.5,0,0.8
			s0,0.6,0,0.8c0,1.5-0.5,2.9-1.4,4.1c-0.9,1.1-2.3,1.7-3.8,1.6c-1.5,0.1-3-0.6-3.9-1.8v5.6c0,0.1,0,0.3-0.2,0.4
			c-0.1,0.1-0.2,0.2-0.4,0.2L1001.1,806.6z M1006.1,800.3c0.9,0.1,1.9-0.3,2.5-1.1c0.6-0.8,0.9-1.8,0.9-2.8c0-0.2,0-0.4,0-0.7
			c0-3-1.1-4.5-3.4-4.5c-1-0.1-1.9,0.4-2.5,1.1c-0.6,0.8-0.9,1.7-0.9,2.6v0.9v0.9c0,0.9,0.3,1.8,0.9,2.5
			C1004.3,800,1005.2,800.4,1006.1,800.3L1006.1,800.3z"/>
	</g>
</g>
</svg>
