<svg width="151" height="55" viewBox="0 0 151 55" fill="none" xmlns="http://www.w3.org/2000/svg">
<g clip-path="url(#clip0)">
<path d="M30.0196 11.0264H15.6163L41.2521 45.3268H56.7083L30.0196 11.0264Z" fill="url(#paint0_linear)"/>
<path d="M54.3333 7.35129L46.9682 14.5776C47.321 15.4358 47.4536 16.366 47.3544 17.2863C47.2551 18.2067 46.927 19.089 46.399 19.8557C45.8709 20.6225 45.1589 21.2501 44.3258 21.6836C43.4926 22.117 42.5637 22.3429 41.6207 22.3415H7.93439V21.2739L0.391174 27.3054L7.93439 33.338V32.2782H15.6174V45.3323H26.9559V32.2782H41.6207C50.3779 32.2782 57.5029 25.2798 57.5029 16.6795C57.5055 13.315 56.393 10.0409 54.3333 7.35129Z" fill="url(#paint1_linear)"/>
<path d="M43.2428 12.0652L50.7849 6.03259L43.2428 0V1.09633H41.6196H30.803H25.725H15.6163V11.0264H41.6196H41.6207H43.2428V11.262V12.0652Z" fill="url(#paint2_linear)"/>
</g>
<mask id="path-4-outside-1" maskUnits="userSpaceOnUse" x="58.7149" y="18.9438" width="93" height="36" fill="black">
<rect fill="white" x="58.7149" y="18.9438" width="93" height="36"/>
<path d="M64.0663 45.3268C62.64 45.3268 61.5522 44.9521 60.8027 44.2027C60.0775 43.4533 59.7149 42.3775 59.7149 40.9754V31.5475C59.7149 30.1695 60.0775 29.1058 60.8027 28.3564C61.5522 27.5829 62.64 27.1961 64.0663 27.1961H67.5111C68.9374 27.1961 70.0132 27.5829 70.7384 28.3564C71.4878 29.1058 71.8625 30.1695 71.8625 31.5475V35.3186L69.8681 37.0955H62.2532V41.0479C62.2532 42.3534 62.8817 43.0061 64.1388 43.0061H67.9463L70.8834 42.1358L71.5361 44.3477L67.9463 45.3268H64.0663ZM62.2532 31.5112V34.7747H68.8165L69.3242 34.3758V31.5112C69.3242 30.2058 68.6957 29.5531 67.4386 29.5531H64.1388C62.8817 29.5531 62.2532 30.2058 62.2532 31.5112Z"/>
<path d="M78.4422 45.3268L74.8524 44.3477L75.4688 42.1358L78.4422 43.0061H85.0418C85.6704 43.0061 86.1659 42.8248 86.5285 42.4621C86.9153 42.0754 87.1087 41.5435 87.1087 40.8666V38.8723C87.1087 38.1954 87.0483 37.724 86.9274 37.4581C86.8065 37.1921 86.4681 36.8658 85.9121 36.479L77.2456 30.4233C75.8435 29.4322 75.1425 28.1389 75.1425 26.5434V24.4765C75.1425 23.0985 75.5413 21.9986 76.3391 21.1767C77.161 20.3548 78.273 19.9438 79.6751 19.9438H85.4044L88.9943 20.9591L88.3779 23.1711L85.4044 22.3008H79.7477C79.1191 22.3008 78.6115 22.4821 78.2247 22.8447C77.8621 23.2073 77.6807 23.7392 77.6807 24.4402V26.2533C77.6807 26.8818 77.7533 27.3411 77.8983 27.6312C78.0434 27.9213 78.3697 28.2477 78.8774 28.6103L87.6526 34.7385C88.9822 35.6571 89.647 36.9262 89.647 38.5459V40.7941C89.647 42.1962 89.2482 43.3082 88.4504 44.1302C87.6526 44.9279 86.5406 45.3268 85.1143 45.3268H78.4422Z"/>
<path d="M97.8135 27.1961H101.802L105.392 28.2114L104.776 30.4233L101.802 29.5531H97.886C96.629 29.5531 96.0004 30.2058 96.0004 31.5112V41.0479C96.0004 42.3534 96.629 43.0061 97.886 43.0061H101.984L104.957 42.1358L105.573 44.3477L101.984 45.3268H97.8135C96.3872 45.3268 95.2994 44.9521 94.55 44.2027C93.8247 43.4533 93.4621 42.3775 93.4621 40.9754V31.5475C93.4621 30.1695 93.8247 29.1058 94.55 28.3564C95.2994 27.5829 96.3872 27.1961 97.8135 27.1961Z"/>
<path d="M117.215 27.1961V29.8794L115.982 29.8069L111.413 31.8013V45.3268H108.875V30.2058L108.512 27.2686L110.869 26.9422L111.268 29.5531L115.402 27.1961H117.215Z"/>
<path d="M120.449 28.2114L124.075 27.1961H128.209C129.635 27.1961 130.711 27.5829 131.436 28.3564C132.186 29.1058 132.56 30.1695 132.56 31.5475V42.4621L132.959 45.3268L130.457 45.6169L130.058 42.3896L125.997 45.3268H124.22C122.818 45.3268 121.742 44.9521 120.993 44.2027C120.244 43.4291 119.869 42.3534 119.869 40.9754V38.7635C119.869 37.3855 120.244 36.3219 120.993 35.5725C121.742 34.7989 122.818 34.4121 124.22 34.4121H130.022V31.5112C130.022 30.2058 129.394 29.5531 128.137 29.5531H124.075L121.102 30.4233L120.449 28.2114ZM124.293 43.0061H125.344L130.022 39.5975V36.6603H124.293C123.036 36.6603 122.407 37.313 122.407 38.6184V41.0479C122.407 42.3534 123.036 43.0061 124.293 43.0061Z"/>
<path d="M137.7 30.1695L137.337 27.2686L139.803 26.9422L140.129 29.5168L144.227 27.1961H146.04C147.442 27.1961 148.518 27.5829 149.267 28.3564C150.016 29.1058 150.391 30.1695 150.391 31.5475V40.9754C150.391 42.3534 150.016 43.4291 149.267 44.2027C148.518 44.9521 147.442 45.3268 146.04 45.3268H144.299L140.238 44.529V53.6669H137.7V30.1695ZM144.807 29.5531L140.238 32.0914V42.2083L144.372 43.0061H145.967C147.224 43.0061 147.853 42.3534 147.853 41.0479V31.5112C147.853 30.2058 147.224 29.5531 145.967 29.5531H144.807Z"/>
</mask>
<path d="M64.0663 45.3268C62.64 45.3268 61.5522 44.9521 60.8027 44.2027C60.0775 43.4533 59.7149 42.3775 59.7149 40.9754V31.5475C59.7149 30.1695 60.0775 29.1058 60.8027 28.3564C61.5522 27.5829 62.64 27.1961 64.0663 27.1961H67.5111C68.9374 27.1961 70.0132 27.5829 70.7384 28.3564C71.4878 29.1058 71.8625 30.1695 71.8625 31.5475V35.3186L69.8681 37.0955H62.2532V41.0479C62.2532 42.3534 62.8817 43.0061 64.1388 43.0061H67.9463L70.8834 42.1358L71.5361 44.3477L67.9463 45.3268H64.0663ZM62.2532 31.5112V34.7747H68.8165L69.3242 34.3758V31.5112C69.3242 30.2058 68.6957 29.5531 67.4386 29.5531H64.1388C62.8817 29.5531 62.2532 30.2058 62.2532 31.5112Z" fill="#00AD45"/>
<path d="M78.4422 45.3268L74.8524 44.3477L75.4688 42.1358L78.4422 43.0061H85.0418C85.6704 43.0061 86.1659 42.8248 86.5285 42.4621C86.9153 42.0754 87.1087 41.5435 87.1087 40.8666V38.8723C87.1087 38.1954 87.0483 37.724 86.9274 37.4581C86.8065 37.1921 86.4681 36.8658 85.9121 36.479L77.2456 30.4233C75.8435 29.4322 75.1425 28.1389 75.1425 26.5434V24.4765C75.1425 23.0985 75.5413 21.9986 76.3391 21.1767C77.161 20.3548 78.273 19.9438 79.6751 19.9438H85.4044L88.9943 20.9591L88.3779 23.1711L85.4044 22.3008H79.7477C79.1191 22.3008 78.6115 22.4821 78.2247 22.8447C77.8621 23.2073 77.6807 23.7392 77.6807 24.4402V26.2533C77.6807 26.8818 77.7533 27.3411 77.8983 27.6312C78.0434 27.9213 78.3697 28.2477 78.8774 28.6103L87.6526 34.7385C88.9822 35.6571 89.647 36.9262 89.647 38.5459V40.7941C89.647 42.1962 89.2482 43.3082 88.4504 44.1302C87.6526 44.9279 86.5406 45.3268 85.1143 45.3268H78.4422Z" fill="#00AD45"/>
<path d="M97.8135 27.1961H101.802L105.392 28.2114L104.776 30.4233L101.802 29.5531H97.886C96.629 29.5531 96.0004 30.2058 96.0004 31.5112V41.0479C96.0004 42.3534 96.629 43.0061 97.886 43.0061H101.984L104.957 42.1358L105.573 44.3477L101.984 45.3268H97.8135C96.3872 45.3268 95.2994 44.9521 94.55 44.2027C93.8247 43.4533 93.4621 42.3775 93.4621 40.9754V31.5475C93.4621 30.1695 93.8247 29.1058 94.55 28.3564C95.2994 27.5829 96.3872 27.1961 97.8135 27.1961Z" fill="#00AD45"/>
<path d="M117.215 27.1961V29.8794L115.982 29.8069L111.413 31.8013V45.3268H108.875V30.2058L108.512 27.2686L110.869 26.9422L111.268 29.5531L115.402 27.1961H117.215Z" fill="#00AD45"/>
<path d="M120.449 28.2114L124.075 27.1961H128.209C129.635 27.1961 130.711 27.5829 131.436 28.3564C132.186 29.1058 132.56 30.1695 132.56 31.5475V42.4621L132.959 45.3268L130.457 45.6169L130.058 42.3896L125.997 45.3268H124.22C122.818 45.3268 121.742 44.9521 120.993 44.2027C120.244 43.4291 119.869 42.3534 119.869 40.9754V38.7635C119.869 37.3855 120.244 36.3219 120.993 35.5725C121.742 34.7989 122.818 34.4121 124.22 34.4121H130.022V31.5112C130.022 30.2058 129.394 29.5531 128.137 29.5531H124.075L121.102 30.4233L120.449 28.2114ZM124.293 43.0061H125.344L130.022 39.5975V36.6603H124.293C123.036 36.6603 122.407 37.313 122.407 38.6184V41.0479C122.407 42.3534 123.036 43.0061 124.293 43.0061Z" fill="#00AD45"/>
<path d="M137.7 30.1695L137.337 27.2686L139.803 26.9422L140.129 29.5168L144.227 27.1961H146.04C147.442 27.1961 148.518 27.5829 149.267 28.3564C150.016 29.1058 150.391 30.1695 150.391 31.5475V40.9754C150.391 42.3534 150.016 43.4291 149.267 44.2027C148.518 44.9521 147.442 45.3268 146.04 45.3268H144.299L140.238 44.529V53.6669H137.7V30.1695ZM144.807 29.5531L140.238 32.0914V42.2083L144.372 43.0061H145.967C147.224 43.0061 147.853 42.3534 147.853 41.0479V31.5112C147.853 30.2058 147.224 29.5531 145.967 29.5531H144.807Z" fill="#00AD45"/>
<path d="M64.0663 45.3268C62.64 45.3268 61.5522 44.9521 60.8027 44.2027C60.0775 43.4533 59.7149 42.3775 59.7149 40.9754V31.5475C59.7149 30.1695 60.0775 29.1058 60.8027 28.3564C61.5522 27.5829 62.64 27.1961 64.0663 27.1961H67.5111C68.9374 27.1961 70.0132 27.5829 70.7384 28.3564C71.4878 29.1058 71.8625 30.1695 71.8625 31.5475V35.3186L69.8681 37.0955H62.2532V41.0479C62.2532 42.3534 62.8817 43.0061 64.1388 43.0061H67.9463L70.8834 42.1358L71.5361 44.3477L67.9463 45.3268H64.0663ZM62.2532 31.5112V34.7747H68.8165L69.3242 34.3758V31.5112C69.3242 30.2058 68.6957 29.5531 67.4386 29.5531H64.1388C62.8817 29.5531 62.2532 30.2058 62.2532 31.5112Z" stroke="#00AD45" mask="url(#path-4-outside-1)"/>
<path d="M78.4422 45.3268L74.8524 44.3477L75.4688 42.1358L78.4422 43.0061H85.0418C85.6704 43.0061 86.1659 42.8248 86.5285 42.4621C86.9153 42.0754 87.1087 41.5435 87.1087 40.8666V38.8723C87.1087 38.1954 87.0483 37.724 86.9274 37.4581C86.8065 37.1921 86.4681 36.8658 85.9121 36.479L77.2456 30.4233C75.8435 29.4322 75.1425 28.1389 75.1425 26.5434V24.4765C75.1425 23.0985 75.5413 21.9986 76.3391 21.1767C77.161 20.3548 78.273 19.9438 79.6751 19.9438H85.4044L88.9943 20.9591L88.3779 23.1711L85.4044 22.3008H79.7477C79.1191 22.3008 78.6115 22.4821 78.2247 22.8447C77.8621 23.2073 77.6807 23.7392 77.6807 24.4402V26.2533C77.6807 26.8818 77.7533 27.3411 77.8983 27.6312C78.0434 27.9213 78.3697 28.2477 78.8774 28.6103L87.6526 34.7385C88.9822 35.6571 89.647 36.9262 89.647 38.5459V40.7941C89.647 42.1962 89.2482 43.3082 88.4504 44.1302C87.6526 44.9279 86.5406 45.3268 85.1143 45.3268H78.4422Z" stroke="#00AD45" mask="url(#path-4-outside-1)"/>
<path d="M97.8135 27.1961H101.802L105.392 28.2114L104.776 30.4233L101.802 29.5531H97.886C96.629 29.5531 96.0004 30.2058 96.0004 31.5112V41.0479C96.0004 42.3534 96.629 43.0061 97.886 43.0061H101.984L104.957 42.1358L105.573 44.3477L101.984 45.3268H97.8135C96.3872 45.3268 95.2994 44.9521 94.55 44.2027C93.8247 43.4533 93.4621 42.3775 93.4621 40.9754V31.5475C93.4621 30.1695 93.8247 29.1058 94.55 28.3564C95.2994 27.5829 96.3872 27.1961 97.8135 27.1961Z" stroke="#00AD45" mask="url(#path-4-outside-1)"/>
<path d="M117.215 27.1961V29.8794L115.982 29.8069L111.413 31.8013V45.3268H108.875V30.2058L108.512 27.2686L110.869 26.9422L111.268 29.5531L115.402 27.1961H117.215Z" stroke="#00AD45" mask="url(#path-4-outside-1)"/>
<path d="M120.449 28.2114L124.075 27.1961H128.209C129.635 27.1961 130.711 27.5829 131.436 28.3564C132.186 29.1058 132.56 30.1695 132.56 31.5475V42.4621L132.959 45.3268L130.457 45.6169L130.058 42.3896L125.997 45.3268H124.22C122.818 45.3268 121.742 44.9521 120.993 44.2027C120.244 43.4291 119.869 42.3534 119.869 40.9754V38.7635C119.869 37.3855 120.244 36.3219 120.993 35.5725C121.742 34.7989 122.818 34.4121 124.22 34.4121H130.022V31.5112C130.022 30.2058 129.394 29.5531 128.137 29.5531H124.075L121.102 30.4233L120.449 28.2114ZM124.293 43.0061H125.344L130.022 39.5975V36.6603H124.293C123.036 36.6603 122.407 37.313 122.407 38.6184V41.0479C122.407 42.3534 123.036 43.0061 124.293 43.0061Z" stroke="#00AD45" mask="url(#path-4-outside-1)"/>
<path d="M137.7 30.1695L137.337 27.2686L139.803 26.9422L140.129 29.5168L144.227 27.1961H146.04C147.442 27.1961 148.518 27.5829 149.267 28.3564C150.016 29.1058 150.391 30.1695 150.391 31.5475V40.9754C150.391 42.3534 150.016 43.4291 149.267 44.2027C148.518 44.9521 147.442 45.3268 146.04 45.3268H144.299L140.238 44.529V53.6669H137.7V30.1695ZM144.807 29.5531L140.238 32.0914V42.2083L144.372 43.0061H145.967C147.224 43.0061 147.853 42.3534 147.853 41.0479V31.5112C147.853 30.2058 147.224 29.5531 145.967 29.5531H144.807Z" stroke="#00AD45" mask="url(#path-4-outside-1)"/>
<defs>
<linearGradient id="paint0_linear" x1="15.6163" y1="28.176" x2="56.7083" y2="28.176" gradientUnits="userSpaceOnUse">
<stop stop-color="#00AD45"/>
<stop offset="0.81" stop-color="#5ECC62"/>
</linearGradient>
<linearGradient id="paint1_linear" x1="38855.2" y1="19237.9" x2="67792.1" y2="19237.9" gradientUnits="userSpaceOnUse">
<stop stop-color="#00AD45"/>
<stop offset="0.81" stop-color="#5ECC62"/>
</linearGradient>
<linearGradient id="paint2_linear" x1="4765.84" y1="657.914" x2="15738.4" y2="657.914" gradientUnits="userSpaceOnUse">
<stop stop-color="#00AD45"/>
<stop offset="0.81" stop-color="#5ECC62"/>
</linearGradient>
<clipPath id="clip0">
<rect width="57.1118" height="45.3268" fill="white" transform="translate(0.391174)"/>
</clipPath>
</defs>
</svg>
