<?xml version="1.0" encoding="utf-8"?>
<!-- Generator: Adobe Illustrator 24.0.1, SVG Export Plug-In . SVG Version: 6.00 Build 0)  -->
<svg version="1.1" id="Layer_1" xmlns="http://www.w3.org/2000/svg" xmlns:xlink="http://www.w3.org/1999/xlink" x="0px" y="0px"
	 viewBox="0 0 1921.4 945" style="enable-background:new 0 0 1921.4 945;" xml:space="preserve">
<style type="text/css">
	.st0{clip-path:url(#SVGID_2_);}
	.st1{fill:#5ECC62;}
	.st2{fill:#00AD45;fill-opacity:0.3;}
</style>
<title>Contact-us-wallpaper</title>
<g>
	<defs>
		<rect id="SVGID_1_" width="1920" height="945"/>
	</defs>
	<clipPath id="SVGID_2_">
		<use xlink:href="#SVGID_1_"  style="overflow:visible;"/>
	</clipPath>
	<g class="st0">
		<rect class="st1" width="1920" height="945"/>
		<path class="st2" d="M1037.2,459.7h349.5c20-0.3,35.9-16.8,35.6-36.8c-0.3-19.5-16.1-35.3-35.6-35.6h-172
			c-20,0-36.2-16.2-36.2-36.2c0-20,16.2-36.2,36.2-36.2h77c20-0.3,35.9-16.8,35.6-36.8c-0.3-19.5-16.1-35.3-35.6-35.6h-152.2
			c-20,0-36.3-16.2-36.3-36.3s16.2-36.3,36.3-36.3h1046.4c20,0.3,35.9,16.8,35.6,36.8c-0.3,19.5-16.1,35.3-35.6,35.6h-97.9
			c-20,0-36.2,16.2-36.2,36.2c0,20,16.2,36.2,36.2,36.2h326.9c20,0.3,35.9,16.8,35.6,36.8c-0.3,19.5-16.1,35.3-35.6,35.6h-253.1
			c-20,0-36.2,16.2-36.2,36.2c0,20,16.2,36.2,36.2,36.2h61.9c20,0.3,35.9,16.8,35.6,36.8c-0.3,19.5-16.1,35.3-35.6,35.6h-378.9
			c-20,0-36.2,16.2-36.2,36.2s16.2,36.2,36.2,36.2h52.3c20,0.3,35.9,16.8,35.6,36.8c-0.3,19.5-16.1,35.3-35.6,35.6h-537.2
			c-20-0.3-35.9-16.8-35.6-36.8c0.3-19.5,16.1-35.3,35.6-35.6h52.3c20,0,36.2-16.2,36.2-36.2s-16.2-36.2-36.2-36.2h-374.9
			c-20,0.3-36.4-15.6-36.8-35.6c-0.3-20,15.6-36.4,35.6-36.8C1036.4,459.7,1036.8,459.7,1037.2,459.7L1037.2,459.7z"/>
	</g>
</g>
</svg>
