<svg id="Layer_1" data-name="Layer 1" xmlns="http://www.w3.org/2000/svg" xmlns:xlink="http://www.w3.org/1999/xlink" viewBox="0 0 5683.31 865.6"><defs><style>.cls-1{fill:none;}.cls-2{clip-path:url(#clip-path);}.cls-3{fill:#5ecc62;}.cls-4{fill:#fff;}.cls-5{clip-path:url(#clip-path-2);}</style><clipPath id="clip-path" transform="translate(830)"><rect class="cls-1" width="4024" height="865.6"/></clipPath><clipPath id="clip-path-2" transform="translate(830)"><rect class="cls-1" x="-829.9" y="113.2" width="1659.9" height="580.5"/></clipPath></defs><title>about-us-background</title><g class="cls-2"><rect class="cls-3" x="830" width="4024" height="865.6"/><path class="cls-4" d="M3235.4,444.9h400a41.46,41.46,0,0,0,0-82.9H3438.6a41.46,41.46,0,0,1,0-82.9h88.2a41.46,41.46,0,0,0,0-82.9H3352.4a41.51,41.51,0,0,1,0-83H4550.3a41.45,41.45,0,0,1,0,82.9h-112a41.46,41.46,0,0,0,0,82.9h374.2a41.46,41.46,0,0,1,0,82.9H4522.7a41.46,41.46,0,0,0,0,82.9h70.8a41.46,41.46,0,0,1,0,82.9H4159.7a41.46,41.46,0,0,0,0,82.9h59.9a41.46,41.46,0,0,1,0,82.9H3604.7a41.46,41.46,0,0,1,0-82.9h59.9a41.46,41.46,0,0,0,0-82.9H3235.4a41.4,41.4,0,0,1,0-82.8Z" transform="translate(830)"/><g class="cls-5"><path class="cls-4" d="M788.6,362h-400a41.42,41.42,0,0,0-41.4,41.4h0a41.5,41.5,0,0,0,41.4,41.5H585.5a41.42,41.42,0,0,1,41.4,41.4h0a41.5,41.5,0,0,1-41.4,41.5H497.3a41.35,41.35,0,0,0-41.4,41.4v.1a41.5,41.5,0,0,0,41.4,41.5H671.7a41.44,41.44,0,0,1,41.4,41.5h0a41.44,41.44,0,0,1-41.3,41.6H-526.3a41.44,41.44,0,0,1-41.4-41.5,41.5,41.5,0,0,1,41.4-41.5h112a41.44,41.44,0,0,0,41.4-41.5,41.5,41.5,0,0,0-41.4-41.5H-788.6A41.42,41.42,0,0,1-830,486.5h0A41.5,41.5,0,0,1-788.6,445h289.8a41.42,41.42,0,0,0,41.4-41.4h0a41.5,41.5,0,0,0-41.4-41.5h-70.8A41.42,41.42,0,0,1-611,320.7h0a41.5,41.5,0,0,1,41.4-41.5h433.8a41.42,41.42,0,0,0,41.4-41.4h0a41.35,41.35,0,0,0-41.4-41.4h-59.9A41.42,41.42,0,0,1-237.1,155h0a41.35,41.35,0,0,1,41.4-41.4H419.2A41.42,41.42,0,0,1,460.6,155h0a41.5,41.5,0,0,1-41.4,41.5H359.3a41.45,41.45,0,0,0,0,82.9H788.5a41.3,41.3,0,1,1,.1,82.6Z" transform="translate(830)"/></g></g></svg>