<?xml version="1.0" encoding="utf-8"?>
<!-- Generator: Adobe Illustrator 24.0.1, SVG Export Plug-In . SVG Version: 6.00 Build 0)  -->
<svg version="1.1" id="Layer_1" xmlns="http://www.w3.org/2000/svg" xmlns:xlink="http://www.w3.org/1999/xlink" x="0px" y="0px"
	 viewBox="0 0 4017.6 663.4" style="enable-background:new 0 0 4017.6 663.4;" xml:space="preserve">
<style type="text/css">
	.st0{clip-path:url(#SVGID_2_);}
	.st1{fill:#5ECC62;}
	.st2{fill:#FFFFFF;}
	.st3{clip-path:url(#SVGID_4_);}
</style>
<title>about-us-background</title>
<g>
	<defs>
		<rect id="SVGID_1_" x="-3.2" width="4024" height="663.4"/>
	</defs>
	<clipPath id="SVGID_2_">
		<use xlink:href="#SVGID_1_"  style="overflow:visible;"/>
	</clipPath>
	<g class="st0">
		<rect x="-3.2" class="st1" width="4024" height="663.4"/>
		<path class="st2" d="M3232.2,341h400c22.9-0.4,41-14.9,40.5-32.5c-0.5-17-18.4-30.7-40.5-31.1h-196.8c-22.9-0.4-41-14.9-40.5-32.5
			c0.5-17,18.4-30.7,40.5-31.1h88.2c22.9-0.4,41-14.9,40.5-32.5c-0.5-17-18.4-30.7-40.5-31.1h-174.4c-22.9-0.4-41.1-14.9-40.6-32.5
			c0.5-17,18.4-30.7,40.6-31.1h1197.9c22.9,0,41.4,14.2,41.4,31.8c0,17.5-18.6,31.7-41.4,31.8h-112c-22.9,0.4-41,14.9-40.5,32.5
			c0.5,17,18.4,30.7,40.5,31.1h374.2c22.9,0.4,41,14.9,40.5,32.5c-0.5,17-18.4,30.7-40.5,31.1h-289.8c-22.9,0.4-41,14.9-40.5,32.5
			c0.5,17,18.4,30.7,40.5,31.1h70.8c22.9,0.4,41,14.9,40.5,32.5c-0.5,17-18.4,30.7-40.5,31.1h-433.8c-22.9,0.4-41,14.9-40.5,32.5
			c0.5,17,18.4,30.7,40.5,31.1h59.9c22.9,0.4,41,14.9,40.5,32.5c-0.5,17-18.4,30.7-40.5,31.1h-614.9c-22.9-0.4-41-14.9-40.5-32.5
			c0.5-17,18.4-30.7,40.5-31.1h59.9c22.9-0.4,41-14.9,40.5-32.5c-0.5-17-18.4-30.7-40.5-31.1h-429.2c-22.9,0-41.4-14.2-41.4-31.7
			C3190.8,355.2,3209.4,341,3232.2,341L3232.2,341z"/>
		<g>
			<defs>
				<rect id="SVGID_3_" x="-833.1" y="86.8" width="1659.9" height="444.9"/>
			</defs>
			<clipPath id="SVGID_4_">
				<use xlink:href="#SVGID_3_"  style="overflow:visible;"/>
			</clipPath>
			<g class="st3">
				<path class="st2" d="M785.4,277.4h-400c-22.9,0-41.4,14.2-41.4,31.7l0,0c0,17.5,18.5,31.8,41.4,31.8h196.9
					c22.9,0,41.4,14.2,41.4,31.7l0,0c0,17.5-18.5,31.8-41.4,31.8h-88.2c-22.8,0-41.4,14.2-41.4,31.7c0,0,0,0.1,0,0.1v0.1
					c0,17.5,18.5,31.8,41.4,31.8h174.4c22.9,0,41.4,14.2,41.4,31.8c0,0,0,0,0,0l0,0c0.1,17.5-18.4,31.8-41.3,31.9c0,0,0,0,0,0
					H-529.5c-22.9,0-41.4-14.2-41.4-31.8c0,0,0,0,0,0c0-17.5,18.5-31.8,41.4-31.8h112c22.9,0,41.4-14.2,41.4-31.8c0,0,0,0,0,0
					c0-17.5-18.5-31.8-41.4-31.8h-374.3c-22.9,0-41.4-14.2-41.4-31.7l0,0c0-17.5,18.5-31.8,41.4-31.8H-502
					c22.9,0,41.4-14.2,41.4-31.7l0,0c0-17.5-18.5-31.8-41.4-31.8h-70.8c-22.9,0-41.4-14.2-41.4-31.7l0,0c0-17.5,18.5-31.8,41.4-31.8
					H-139c22.9,0,41.4-14.2,41.4-31.7l0,0c0-17.5-18.5-31.7-41.3-31.7c0,0-0.1,0-0.1,0h-59.9c-22.9,0-41.4-14.2-41.4-31.7l0,0
					c0-17.5,18.5-31.7,41.3-31.7c0,0,0.1,0,0.1,0H416c22.9,0,41.4,14.2,41.4,31.7l0,0c0,17.5-18.5,31.8-41.4,31.8h-59.9
					c-22.9,0-41.4,14.2-41.4,31.8c0,17.5,18.6,31.7,41.4,31.8h429.2c22.8,0,41.3,14.1,41.3,31.6
					C826.7,263.2,808.2,277.4,785.4,277.4z"/>
			</g>
		</g>
	</g>
</g>
</svg>
